<?xml version="1.0" standalone="no"?>
<!DOCTYPE svg PUBLIC "-//W3C//DTD SVG 20010904//EN"
 "http://www.w3.org/TR/2001/REC-SVG-20010904/DTD/svg10.dtd">
<svg version="1.0" xmlns="http://www.w3.org/2000/svg"
 width="140.000000pt" height="140.000000pt" viewBox="0 0 140.000000 140.000000"
 preserveAspectRatio="xMidYMid meet">
<metadata>
Created by potrace 1.11, written by Peter Selinger 2001-2013
</metadata>
<g transform="translate(0.000000,140.000000) scale(0.100000,-0.100000)"
fill="#000000" stroke="none">
<path d="M492 1253 c-42 -60 -432 -733 -432 -745 0 -14 450 -468 464 -468 4 0
44 35 87 77 l80 77 77 -77 c43 -42 82 -77 87 -77 15 0 465 453 465 468 0 12
-390 683 -432 745 -11 15 -26 27 -34 27 -7 0 -46 -56 -86 -125 -40 -68 -75
-124 -78 -125 -3 0 -38 57 -78 125 -40 69 -79 125 -87 125 -7 0 -22 -12 -33
-27z m107 -197 c29 -49 50 -95 47 -102 -3 -8 -60 -106 -126 -219 -66 -113
-123 -212 -127 -221 -4 -11 32 -53 123 -145 l129 -129 -60 -60 -60 -60 -198
198 -198 198 94 160 c320 542 298 507 311 487 7 -10 36 -58 65 -107z m460
-216 l191 -325 -197 -197 -198 -198 -60 60 -60 60 128 128 c70 70 127 131 127
136 0 5 -56 105 -125 221 -68 117 -127 219 -130 227 -7 18 116 231 126 220 5
-4 94 -153 198 -332z m-250 -140 l109 -185 -114 -115 -114 -115 -114 115 -114
115 111 188 c61 103 114 186 119 185 4 -2 57 -86 117 -188z"/>
</g>
</svg>
